<mxfile host="app.diagrams.net" modified="2023-11-15T08:31:20.614Z" agent="Mozilla/5.0 (Windows NT 10.0; Win64; x64; rv:120.0) Gecko/20100101 Firefox/120.0" etag="IpCrJnH8oSI92-HQkunw" version="21.7.5" type="github" pages="6">
  <diagram name="Sitemap" id="2c0d36ab-eaac-3732-788b-9136903baeff">
    <mxGraphModel dx="794" dy="1654.5" grid="1" gridSize="10" guides="1" tooltips="1" connect="1" arrows="1" fold="1" page="1" pageScale="1.5" pageWidth="1169" pageHeight="827" background="none" math="0" shadow="0">
      <root>
        <mxCell id="0" />
        <mxCell id="1" parent="0" />
        <mxCell id="YeOUFKRIgOiYNc85x88V-65" value="" style="rounded=0;whiteSpace=wrap;html=1;" parent="1" vertex="1">
          <mxGeometry x="100" y="-180" width="1550" height="1020" as="geometry" />
        </mxCell>
        <mxCell id="x6c-boVye2weIyAbreFt-125" style="edgeStyle=orthogonalEdgeStyle;rounded=0;orthogonalLoop=1;jettySize=auto;html=1;exitX=0.5;exitY=1;exitDx=0;exitDy=0;" parent="1" source="2" target="10" edge="1">
          <mxGeometry relative="1" as="geometry" />
        </mxCell>
        <mxCell id="2" value="Dashboard" style="rounded=1;fillColor=#23445D;gradientColor=none;strokeColor=none;fontColor=#FFFFFF;fontStyle=1;fontFamily=Tahoma;fontSize=14" parent="1" vertex="1">
          <mxGeometry x="752" y="30" width="190" height="80" as="geometry" />
        </mxCell>
        <mxCell id="AaHzjpml5r2EquTFjG3P-63" style="edgeStyle=orthogonalEdgeStyle;rounded=0;orthogonalLoop=1;jettySize=auto;html=1;exitX=0.5;exitY=1;exitDx=0;exitDy=0;entryX=0.5;entryY=0;entryDx=0;entryDy=0;" parent="1" source="4" target="AaHzjpml5r2EquTFjG3P-62" edge="1">
          <mxGeometry relative="1" as="geometry" />
        </mxCell>
        <mxCell id="AaHzjpml5r2EquTFjG3P-65" style="edgeStyle=orthogonalEdgeStyle;rounded=0;orthogonalLoop=1;jettySize=auto;html=1;exitX=0.5;exitY=1;exitDx=0;exitDy=0;entryX=0.5;entryY=0;entryDx=0;entryDy=0;" parent="1" source="4" target="AaHzjpml5r2EquTFjG3P-64" edge="1">
          <mxGeometry relative="1" as="geometry" />
        </mxCell>
        <mxCell id="4" value="Report Expense Cash" style="rounded=1;fillColor=#23445D;gradientColor=none;strokeColor=none;fontColor=#FFFFFF;fontStyle=1;fontFamily=Tahoma;fontSize=14" parent="1" vertex="1">
          <mxGeometry x="1259.9999999999998" y="230" width="190" height="80" as="geometry" />
        </mxCell>
        <mxCell id="9" value="" style="edgeStyle=elbowEdgeStyle;elbow=vertical;strokeWidth=2;rounded=0" parent="1" source="2" target="4" edge="1">
          <mxGeometry x="337" y="215.5" width="100" height="100" as="geometry">
            <mxPoint x="337" y="315.5" as="sourcePoint" />
            <mxPoint x="437" y="215.5" as="targetPoint" />
          </mxGeometry>
        </mxCell>
        <mxCell id="n60hB6wUWU2CU9CprRJ9-123" value="" style="edgeStyle=orthogonalEdgeStyle;rounded=0;orthogonalLoop=1;jettySize=auto;html=1;" parent="1" source="10" target="n60hB6wUWU2CU9CprRJ9-122" edge="1">
          <mxGeometry relative="1" as="geometry" />
        </mxCell>
        <mxCell id="n60hB6wUWU2CU9CprRJ9-125" value="" style="edgeStyle=orthogonalEdgeStyle;rounded=0;orthogonalLoop=1;jettySize=auto;html=1;" parent="1" source="10" target="n60hB6wUWU2CU9CprRJ9-124" edge="1">
          <mxGeometry relative="1" as="geometry" />
        </mxCell>
        <mxCell id="10" value="Approval" style="rounded=1;fillColor=#23445D;gradientColor=none;strokeColor=none;fontColor=#FFFFFF;fontStyle=1;fontFamily=Tahoma;fontSize=14" parent="1" vertex="1">
          <mxGeometry x="900" y="230" width="190" height="80" as="geometry" />
        </mxCell>
        <mxCell id="12" value="Outstanding" style="rounded=1;fillColor=#23445D;gradientColor=none;strokeColor=none;fontColor=#FFFFFF;fontStyle=1;fontFamily=Tahoma;fontSize=14" parent="1" vertex="1">
          <mxGeometry x="599.9999999999999" y="230" width="190" height="80" as="geometry" />
        </mxCell>
        <mxCell id="13" value="Pengajuan" style="rounded=1;fillColor=#23445D;gradientColor=none;strokeColor=none;fontColor=#FFFFFF;fontStyle=1;fontFamily=Tahoma;fontSize=14" parent="1" vertex="1">
          <mxGeometry x="310" y="230" width="190" height="80" as="geometry" />
        </mxCell>
        <mxCell id="n60hB6wUWU2CU9CprRJ9-114" value="" style="edgeStyle=orthogonalEdgeStyle;rounded=0;orthogonalLoop=1;jettySize=auto;html=1;" parent="1" source="14" target="n60hB6wUWU2CU9CprRJ9-113" edge="1">
          <mxGeometry relative="1" as="geometry" />
        </mxCell>
        <mxCell id="14" value="Pengajuan Baru" style="rounded=1;fillColor=#23445D;gradientColor=none;strokeColor=none;fontColor=#FFFFFF;fontStyle=1;fontFamily=Tahoma;fontSize=14" parent="1" vertex="1">
          <mxGeometry x="200" y="380" width="130" height="60" as="geometry" />
        </mxCell>
        <mxCell id="59" value="" style="edgeStyle=elbowEdgeStyle;elbow=vertical;strokeWidth=2;rounded=0" parent="1" source="2" target="12" edge="1">
          <mxGeometry x="347" y="225.5" width="100" height="100" as="geometry">
            <mxPoint x="861.9999999999999" y="275.5" as="sourcePoint" />
            <mxPoint x="1466.9999999999998" y="345.5" as="targetPoint" />
          </mxGeometry>
        </mxCell>
        <mxCell id="61" value="" style="edgeStyle=elbowEdgeStyle;elbow=vertical;strokeWidth=2;rounded=0" parent="1" source="2" target="13" edge="1">
          <mxGeometry x="-23" y="135.5" width="100" height="100" as="geometry">
            <mxPoint x="-23" y="235.5" as="sourcePoint" />
            <mxPoint x="77" y="135.5" as="targetPoint" />
          </mxGeometry>
        </mxCell>
        <mxCell id="62" value="" style="edgeStyle=elbowEdgeStyle;elbow=vertical;strokeWidth=2;rounded=0" parent="1" source="13" target="14" edge="1">
          <mxGeometry x="-23" y="135.5" width="100" height="100" as="geometry">
            <mxPoint x="-23" y="235.5" as="sourcePoint" />
            <mxPoint x="77" y="135.5" as="targetPoint" />
          </mxGeometry>
        </mxCell>
        <mxCell id="x6c-boVye2weIyAbreFt-124" style="edgeStyle=orthogonalEdgeStyle;rounded=0;orthogonalLoop=1;jettySize=auto;html=1;exitX=0.5;exitY=1;exitDx=0;exitDy=0;" parent="1" source="x6c-boVye2weIyAbreFt-123" target="2" edge="1">
          <mxGeometry relative="1" as="geometry" />
        </mxCell>
        <mxCell id="x6c-boVye2weIyAbreFt-123" value="Login" style="rounded=1;fillColor=#23445D;gradientColor=none;strokeColor=none;fontColor=#FFFFFF;fontStyle=1;fontFamily=Tahoma;fontSize=14" parent="1" vertex="1">
          <mxGeometry x="752" y="-110" width="190" height="80" as="geometry" />
        </mxCell>
        <mxCell id="n60hB6wUWU2CU9CprRJ9-116" value="" style="edgeStyle=orthogonalEdgeStyle;rounded=0;orthogonalLoop=1;jettySize=auto;html=1;" parent="1" source="n60hB6wUWU2CU9CprRJ9-113" target="n60hB6wUWU2CU9CprRJ9-115" edge="1">
          <mxGeometry relative="1" as="geometry" />
        </mxCell>
        <mxCell id="n60hB6wUWU2CU9CprRJ9-113" value="View ERK" style="whiteSpace=wrap;html=1;fontSize=14;fontFamily=Tahoma;fillColor=#23445D;strokeColor=none;fontColor=#FFFFFF;rounded=1;gradientColor=none;fontStyle=1;" parent="1" vertex="1">
          <mxGeometry x="205" y="480" width="120" height="60" as="geometry" />
        </mxCell>
        <mxCell id="n60hB6wUWU2CU9CprRJ9-118" value="" style="edgeStyle=orthogonalEdgeStyle;rounded=0;orthogonalLoop=1;jettySize=auto;html=1;" parent="1" source="n60hB6wUWU2CU9CprRJ9-115" target="n60hB6wUWU2CU9CprRJ9-117" edge="1">
          <mxGeometry relative="1" as="geometry" />
        </mxCell>
        <mxCell id="n60hB6wUWU2CU9CprRJ9-115" value="History Pengajuan" style="whiteSpace=wrap;html=1;fontSize=14;fontFamily=Tahoma;fillColor=#23445D;strokeColor=none;fontColor=#FFFFFF;rounded=1;gradientColor=none;fontStyle=1;" parent="1" vertex="1">
          <mxGeometry x="205" y="580" width="120" height="60" as="geometry" />
        </mxCell>
        <mxCell id="n60hB6wUWU2CU9CprRJ9-117" value="Komentar Pengajuan" style="whiteSpace=wrap;html=1;fontSize=14;fontFamily=Tahoma;fillColor=#23445D;strokeColor=none;fontColor=#FFFFFF;rounded=1;gradientColor=none;fontStyle=1;" parent="1" vertex="1">
          <mxGeometry x="205" y="680" width="120" height="60" as="geometry" />
        </mxCell>
        <mxCell id="n60hB6wUWU2CU9CprRJ9-122" value="Approval Marketing" style="whiteSpace=wrap;html=1;fontSize=14;fontFamily=Tahoma;fillColor=#23445D;strokeColor=none;fontColor=#FFFFFF;rounded=1;gradientColor=none;fontStyle=1;" parent="1" vertex="1">
          <mxGeometry x="822" y="370" width="120" height="60" as="geometry" />
        </mxCell>
        <mxCell id="n60hB6wUWU2CU9CprRJ9-124" value="Approval FA" style="whiteSpace=wrap;html=1;fontSize=14;fontFamily=Tahoma;fillColor=#23445D;strokeColor=none;fontColor=#FFFFFF;rounded=1;gradientColor=none;fontStyle=1;" parent="1" vertex="1">
          <mxGeometry x="1040" y="370" width="120" height="60" as="geometry" />
        </mxCell>
        <mxCell id="AaHzjpml5r2EquTFjG3P-62" value="Input Expense" style="rounded=1;fillColor=#23445D;gradientColor=none;strokeColor=none;fontColor=#FFFFFF;fontStyle=1;fontFamily=Tahoma;fontSize=14" parent="1" vertex="1">
          <mxGeometry x="1210" y="370" width="130" height="60" as="geometry" />
        </mxCell>
        <mxCell id="AaHzjpml5r2EquTFjG3P-64" value="Approve Expense" style="rounded=1;fillColor=#23445D;gradientColor=none;strokeColor=none;fontColor=#FFFFFF;fontStyle=1;fontFamily=Tahoma;fontSize=14" parent="1" vertex="1">
          <mxGeometry x="1390" y="370" width="130" height="60" as="geometry" />
        </mxCell>
      </root>
    </mxGraphModel>
  </diagram>
  <diagram id="hyrL17rlMdDggTiDfuI8" name="BP-Paten Mobile G3">
    <mxGraphModel dx="2294" dy="1853" grid="1" gridSize="10" guides="1" tooltips="1" connect="1" arrows="1" fold="1" page="1" pageScale="1" pageWidth="850" pageHeight="1100" math="0" shadow="0">
      <root>
        <mxCell id="0" />
        <mxCell id="1" parent="0" />
        <mxCell id="_b0GIocgFTVtIZ9mbVTB-4" value="" style="rounded=0;whiteSpace=wrap;html=1;" parent="1" vertex="1">
          <mxGeometry x="-30" y="-20" width="890" height="940" as="geometry" />
        </mxCell>
        <mxCell id="Mx_BGRn_JSBhVJ7Nowpk-1" value="Clinicare 2.0 (Paten Mobile G3)" style="swimlane;html=1;childLayout=stackLayout;startSize=20;rounded=0;shadow=0;comic=0;labelBackgroundColor=none;strokeWidth=1;fontFamily=Verdana;fontSize=12;align=center;" parent="1" vertex="1">
          <mxGeometry x="40" y="20" width="750" height="840" as="geometry" />
        </mxCell>
        <mxCell id="Mx_BGRn_JSBhVJ7Nowpk-2" value="Customer" style="swimlane;html=1;startSize=20;" parent="Mx_BGRn_JSBhVJ7Nowpk-1" vertex="1">
          <mxGeometry y="20" width="250" height="820" as="geometry" />
        </mxCell>
        <mxCell id="Mx_BGRn_JSBhVJ7Nowpk-29" value="" style="ellipse;whiteSpace=wrap;html=1;rounded=0;shadow=0;comic=0;labelBackgroundColor=none;strokeWidth=1;fillColor=#000000;fontFamily=Verdana;fontSize=12;align=center;" parent="Mx_BGRn_JSBhVJ7Nowpk-2" vertex="1">
          <mxGeometry x="100" y="30" width="40" height="40" as="geometry" />
        </mxCell>
        <mxCell id="Mx_BGRn_JSBhVJ7Nowpk-65" style="edgeStyle=orthogonalEdgeStyle;rounded=0;orthogonalLoop=1;jettySize=auto;html=1;exitX=0.5;exitY=1;exitDx=0;exitDy=0;" parent="Mx_BGRn_JSBhVJ7Nowpk-2" source="Mx_BGRn_JSBhVJ7Nowpk-30" target="Mx_BGRn_JSBhVJ7Nowpk-63" edge="1">
          <mxGeometry relative="1" as="geometry" />
        </mxCell>
        <mxCell id="Mx_BGRn_JSBhVJ7Nowpk-30" value="Start" style="rounded=1;whiteSpace=wrap;html=1;shadow=0;comic=0;labelBackgroundColor=none;strokeWidth=1;fontFamily=Verdana;fontSize=12;align=center;arcSize=50;" parent="Mx_BGRn_JSBhVJ7Nowpk-2" vertex="1">
          <mxGeometry x="70" y="100" width="100" height="30" as="geometry" />
        </mxCell>
        <mxCell id="Mx_BGRn_JSBhVJ7Nowpk-28" style="edgeStyle=orthogonalEdgeStyle;rounded=0;html=1;labelBackgroundColor=none;startArrow=none;startFill=0;startSize=5;endArrow=classicThin;endFill=1;endSize=5;jettySize=auto;orthogonalLoop=1;strokeWidth=1;fontFamily=Verdana;fontSize=12" parent="Mx_BGRn_JSBhVJ7Nowpk-2" source="Mx_BGRn_JSBhVJ7Nowpk-29" target="Mx_BGRn_JSBhVJ7Nowpk-30" edge="1">
          <mxGeometry relative="1" as="geometry" />
        </mxCell>
        <mxCell id="u4_LbaULI_CRTSoDva7J-2" value="" style="edgeStyle=orthogonalEdgeStyle;rounded=0;orthogonalLoop=1;jettySize=auto;html=1;" edge="1" parent="Mx_BGRn_JSBhVJ7Nowpk-2" source="Mx_BGRn_JSBhVJ7Nowpk-63" target="u4_LbaULI_CRTSoDva7J-1">
          <mxGeometry relative="1" as="geometry" />
        </mxCell>
        <mxCell id="Mx_BGRn_JSBhVJ7Nowpk-63" value="Register" style="html=1;dashed=0;whiteSpace=wrap;" parent="Mx_BGRn_JSBhVJ7Nowpk-2" vertex="1">
          <mxGeometry x="70" y="190" width="100" height="50" as="geometry" />
        </mxCell>
        <mxCell id="Mx_BGRn_JSBhVJ7Nowpk-107" value="Login" style="whiteSpace=wrap;html=1;dashed=0;" parent="Mx_BGRn_JSBhVJ7Nowpk-2" vertex="1">
          <mxGeometry x="70" y="410" width="100" height="40" as="geometry" />
        </mxCell>
        <mxCell id="Mx_BGRn_JSBhVJ7Nowpk-127" value="" style="shape=mxgraph.bpmn.shape;html=1;verticalLabelPosition=bottom;labelBackgroundColor=#ffffff;verticalAlign=top;perimeter=ellipsePerimeter;outline=end;symbol=terminate;rounded=0;shadow=0;comic=0;strokeWidth=1;fontFamily=Verdana;fontSize=12;align=center;" parent="Mx_BGRn_JSBhVJ7Nowpk-2" vertex="1">
          <mxGeometry x="100" y="720" width="40" height="40" as="geometry" />
        </mxCell>
        <mxCell id="u4_LbaULI_CRTSoDva7J-1" value="Input Referral Code (G3)" style="whiteSpace=wrap;html=1;dashed=0;" vertex="1" parent="Mx_BGRn_JSBhVJ7Nowpk-2">
          <mxGeometry x="70" y="280" width="100" height="50" as="geometry" />
        </mxCell>
        <mxCell id="u4_LbaULI_CRTSoDva7J-11" style="edgeStyle=orthogonalEdgeStyle;rounded=0;orthogonalLoop=1;jettySize=auto;html=1;exitX=0;exitY=0.5;exitDx=0;exitDy=0;entryX=0;entryY=0.5;entryDx=0;entryDy=0;" edge="1" parent="Mx_BGRn_JSBhVJ7Nowpk-2" source="u4_LbaULI_CRTSoDva7J-9" target="Mx_BGRn_JSBhVJ7Nowpk-127">
          <mxGeometry relative="1" as="geometry" />
        </mxCell>
        <mxCell id="u4_LbaULI_CRTSoDva7J-9" value="Product G3" style="shape=document;whiteSpace=wrap;html=1;boundedLbl=1;" vertex="1" parent="Mx_BGRn_JSBhVJ7Nowpk-2">
          <mxGeometry x="60" y="610" width="120" height="80" as="geometry" />
        </mxCell>
        <mxCell id="Mx_BGRn_JSBhVJ7Nowpk-11" value="System" style="swimlane;html=1;startSize=20;" parent="Mx_BGRn_JSBhVJ7Nowpk-1" vertex="1">
          <mxGeometry x="250" y="20" width="250" height="820" as="geometry" />
        </mxCell>
        <mxCell id="Mx_BGRn_JSBhVJ7Nowpk-72" value="G3" style="rhombus;whiteSpace=wrap;html=1;" parent="Mx_BGRn_JSBhVJ7Nowpk-11" vertex="1">
          <mxGeometry x="85" y="490" width="80" height="80" as="geometry" />
        </mxCell>
        <mxCell id="Anwrgdbh4CqamGBAKEzt-22" value="Check Existing Kodelang" style="rhombus;whiteSpace=wrap;html=1;" parent="Mx_BGRn_JSBhVJ7Nowpk-11" vertex="1">
          <mxGeometry x="85" y="265" width="80" height="80" as="geometry" />
        </mxCell>
        <mxCell id="Mx_BGRn_JSBhVJ7Nowpk-27" value="Database" style="swimlane;html=1;startSize=20;" parent="Mx_BGRn_JSBhVJ7Nowpk-1" vertex="1">
          <mxGeometry x="500" y="20" width="250" height="820" as="geometry" />
        </mxCell>
        <mxCell id="u4_LbaULI_CRTSoDva7J-5" value="Data Customer" style="shape=cylinder3;whiteSpace=wrap;html=1;boundedLbl=1;backgroundOutline=1;size=15;" vertex="1" parent="Mx_BGRn_JSBhVJ7Nowpk-27">
          <mxGeometry x="100" y="265" width="60" height="80" as="geometry" />
        </mxCell>
        <mxCell id="Mx_BGRn_JSBhVJ7Nowpk-109" style="edgeStyle=orthogonalEdgeStyle;rounded=0;orthogonalLoop=1;jettySize=auto;html=1;exitX=0.5;exitY=1;exitDx=0;exitDy=0;entryX=0;entryY=0.5;entryDx=0;entryDy=0;" parent="Mx_BGRn_JSBhVJ7Nowpk-1" source="Mx_BGRn_JSBhVJ7Nowpk-107" target="Mx_BGRn_JSBhVJ7Nowpk-72" edge="1">
          <mxGeometry relative="1" as="geometry" />
        </mxCell>
        <mxCell id="Anwrgdbh4CqamGBAKEzt-8" value="No" style="edgeStyle=orthogonalEdgeStyle;rounded=0;orthogonalLoop=1;jettySize=auto;html=1;exitX=0.5;exitY=1;exitDx=0;exitDy=0;entryX=0.5;entryY=0;entryDx=0;entryDy=0;" parent="Mx_BGRn_JSBhVJ7Nowpk-1" source="Anwrgdbh4CqamGBAKEzt-22" target="Mx_BGRn_JSBhVJ7Nowpk-107" edge="1">
          <mxGeometry x="-0.7273" relative="1" as="geometry">
            <Array as="points">
              <mxPoint x="375" y="400" />
              <mxPoint x="120" y="400" />
            </Array>
            <mxPoint x="-1" as="offset" />
            <mxPoint x="335" y="480" as="sourcePoint" />
          </mxGeometry>
        </mxCell>
        <mxCell id="u4_LbaULI_CRTSoDva7J-3" style="edgeStyle=orthogonalEdgeStyle;rounded=0;orthogonalLoop=1;jettySize=auto;html=1;exitX=1;exitY=0.5;exitDx=0;exitDy=0;entryX=0;entryY=0.5;entryDx=0;entryDy=0;" edge="1" parent="Mx_BGRn_JSBhVJ7Nowpk-1" source="u4_LbaULI_CRTSoDva7J-1" target="Anwrgdbh4CqamGBAKEzt-22">
          <mxGeometry relative="1" as="geometry">
            <Array as="points">
              <mxPoint x="335" y="325" />
            </Array>
          </mxGeometry>
        </mxCell>
        <mxCell id="u4_LbaULI_CRTSoDva7J-4" value="Yes" style="edgeStyle=orthogonalEdgeStyle;rounded=0;orthogonalLoop=1;jettySize=auto;html=1;exitX=0.5;exitY=0;exitDx=0;exitDy=0;" edge="1" parent="Mx_BGRn_JSBhVJ7Nowpk-1" source="Anwrgdbh4CqamGBAKEzt-22" target="Mx_BGRn_JSBhVJ7Nowpk-63">
          <mxGeometry relative="1" as="geometry">
            <Array as="points">
              <mxPoint x="375" y="240" />
            </Array>
          </mxGeometry>
        </mxCell>
        <mxCell id="u4_LbaULI_CRTSoDva7J-6" style="edgeStyle=orthogonalEdgeStyle;rounded=0;orthogonalLoop=1;jettySize=auto;html=1;exitX=1;exitY=0.5;exitDx=0;exitDy=0;entryX=0;entryY=0.5;entryDx=0;entryDy=0;entryPerimeter=0;" edge="1" parent="Mx_BGRn_JSBhVJ7Nowpk-1" source="Anwrgdbh4CqamGBAKEzt-22" target="u4_LbaULI_CRTSoDva7J-5">
          <mxGeometry relative="1" as="geometry" />
        </mxCell>
        <mxCell id="u4_LbaULI_CRTSoDva7J-10" style="edgeStyle=orthogonalEdgeStyle;rounded=0;orthogonalLoop=1;jettySize=auto;html=1;exitX=0.5;exitY=1;exitDx=0;exitDy=0;entryX=0.5;entryY=0;entryDx=0;entryDy=0;" edge="1" parent="Mx_BGRn_JSBhVJ7Nowpk-1" source="Mx_BGRn_JSBhVJ7Nowpk-72" target="u4_LbaULI_CRTSoDva7J-9">
          <mxGeometry relative="1" as="geometry" />
        </mxCell>
        <mxCell id="u4_LbaULI_CRTSoDva7J-12" style="edgeStyle=orthogonalEdgeStyle;rounded=0;orthogonalLoop=1;jettySize=auto;html=1;exitX=1;exitY=0.5;exitDx=0;exitDy=0;" edge="1" parent="Mx_BGRn_JSBhVJ7Nowpk-1" source="Mx_BGRn_JSBhVJ7Nowpk-72" target="u4_LbaULI_CRTSoDva7J-5">
          <mxGeometry relative="1" as="geometry" />
        </mxCell>
      </root>
    </mxGraphModel>
  </diagram>
  <diagram id="gXr8iLqarYBa6W1CwOt3" name="BP-ERK">
    <mxGraphModel dx="2294" dy="1853" grid="1" gridSize="10" guides="1" tooltips="1" connect="1" arrows="1" fold="1" page="1" pageScale="1" pageWidth="850" pageHeight="1100" math="0" shadow="0">
      <root>
        <mxCell id="0" />
        <mxCell id="1" parent="0" />
        <mxCell id="9nfMRMWuMNIvAf5btHpz-1" value="" style="rounded=0;whiteSpace=wrap;html=1;" vertex="1" parent="1">
          <mxGeometry x="-30" y="-20" width="1380" height="1140" as="geometry" />
        </mxCell>
        <mxCell id="9nfMRMWuMNIvAf5btHpz-2" value="Data ERK" style="swimlane;html=1;childLayout=stackLayout;startSize=20;rounded=0;shadow=0;comic=0;labelBackgroundColor=none;strokeWidth=1;fontFamily=Verdana;fontSize=12;align=center;" vertex="1" parent="1">
          <mxGeometry x="40" y="20" width="1250" height="1040" as="geometry" />
        </mxCell>
        <mxCell id="9nfMRMWuMNIvAf5btHpz-3" value="Data Masuk" style="swimlane;html=1;startSize=20;" vertex="1" parent="9nfMRMWuMNIvAf5btHpz-2">
          <mxGeometry y="20" width="250" height="1020" as="geometry" />
        </mxCell>
        <mxCell id="9nfMRMWuMNIvAf5btHpz-4" value="" style="ellipse;whiteSpace=wrap;html=1;rounded=0;shadow=0;comic=0;labelBackgroundColor=none;strokeWidth=1;fillColor=#000000;fontFamily=Verdana;fontSize=12;align=center;" vertex="1" parent="9nfMRMWuMNIvAf5btHpz-3">
          <mxGeometry x="100" y="30" width="40" height="40" as="geometry" />
        </mxCell>
        <mxCell id="9nfMRMWuMNIvAf5btHpz-6" value="Start" style="rounded=1;whiteSpace=wrap;html=1;shadow=0;comic=0;labelBackgroundColor=none;strokeWidth=1;fontFamily=Verdana;fontSize=12;align=center;arcSize=50;" vertex="1" parent="9nfMRMWuMNIvAf5btHpz-3">
          <mxGeometry x="70" y="100" width="100" height="30" as="geometry" />
        </mxCell>
        <mxCell id="9nfMRMWuMNIvAf5btHpz-7" style="edgeStyle=orthogonalEdgeStyle;rounded=0;html=1;labelBackgroundColor=none;startArrow=none;startFill=0;startSize=5;endArrow=classicThin;endFill=1;endSize=5;jettySize=auto;orthogonalLoop=1;strokeWidth=1;fontFamily=Verdana;fontSize=12" edge="1" parent="9nfMRMWuMNIvAf5btHpz-3" source="9nfMRMWuMNIvAf5btHpz-4" target="9nfMRMWuMNIvAf5btHpz-6">
          <mxGeometry relative="1" as="geometry" />
        </mxCell>
        <mxCell id="9nfMRMWuMNIvAf5btHpz-10" value="Proses Data" style="whiteSpace=wrap;html=1;dashed=0;" vertex="1" parent="9nfMRMWuMNIvAf5btHpz-3">
          <mxGeometry x="60" y="295" width="120" height="60" as="geometry" />
        </mxCell>
        <mxCell id="9nfMRMWuMNIvAf5btHpz-14" value="Data PMS" style="swimlane;html=1;startSize=20;" vertex="1" parent="9nfMRMWuMNIvAf5btHpz-2">
          <mxGeometry x="250" y="20" width="250" height="1020" as="geometry" />
        </mxCell>
        <mxCell id="9nfMRMWuMNIvAf5btHpz-52" value="Data Realiassi PMS" style="shape=document;whiteSpace=wrap;html=1;boundedLbl=1;" vertex="1" parent="9nfMRMWuMNIvAf5btHpz-14">
          <mxGeometry x="70" y="240" width="120" height="80" as="geometry" />
        </mxCell>
        <mxCell id="9nfMRMWuMNIvAf5btHpz-23" value="Data DAP" style="swimlane;html=1;startSize=20;" vertex="1" parent="9nfMRMWuMNIvAf5btHpz-2">
          <mxGeometry x="500" y="20" width="250" height="1020" as="geometry" />
        </mxCell>
        <mxCell id="-JsXzYVeTdhQIKo50ZQ9-2" value="Cicilan DAP" style="shape=document;whiteSpace=wrap;html=1;boundedLbl=1;" vertex="1" parent="9nfMRMWuMNIvAf5btHpz-23">
          <mxGeometry x="65" y="240" width="120" height="80" as="geometry" />
        </mxCell>
        <mxCell id="-JsXzYVeTdhQIKo50ZQ9-3" style="edgeStyle=orthogonalEdgeStyle;rounded=0;orthogonalLoop=1;jettySize=auto;html=1;exitX=0.5;exitY=1;exitDx=0;exitDy=0;exitPerimeter=0;" edge="1" source="-JsXzYVeTdhQIKo50ZQ9-4" target="-JsXzYVeTdhQIKo50ZQ9-2" parent="9nfMRMWuMNIvAf5btHpz-23">
          <mxGeometry relative="1" as="geometry" />
        </mxCell>
        <mxCell id="-JsXzYVeTdhQIKo50ZQ9-4" value="Data DAP" style="shape=cylinder3;whiteSpace=wrap;html=1;boundedLbl=1;backgroundOutline=1;size=15;" vertex="1" parent="9nfMRMWuMNIvAf5btHpz-23">
          <mxGeometry x="95" y="90" width="60" height="80" as="geometry" />
        </mxCell>
        <mxCell id="9nfMRMWuMNIvAf5btHpz-33" value="Data Adjusment" style="swimlane;html=1;startSize=20;" vertex="1" parent="9nfMRMWuMNIvAf5btHpz-2">
          <mxGeometry x="750" y="20" width="250" height="1020" as="geometry" />
        </mxCell>
        <mxCell id="-JsXzYVeTdhQIKo50ZQ9-5" value="Data Adjusment" style="shape=document;whiteSpace=wrap;html=1;boundedLbl=1;" vertex="1" parent="9nfMRMWuMNIvAf5btHpz-33">
          <mxGeometry x="65" y="240" width="120" height="80" as="geometry" />
        </mxCell>
        <mxCell id="-JsXzYVeTdhQIKo50ZQ9-6" style="edgeStyle=orthogonalEdgeStyle;rounded=0;orthogonalLoop=1;jettySize=auto;html=1;exitX=0.5;exitY=1;exitDx=0;exitDy=0;exitPerimeter=0;" edge="1" source="-JsXzYVeTdhQIKo50ZQ9-7" target="-JsXzYVeTdhQIKo50ZQ9-5" parent="9nfMRMWuMNIvAf5btHpz-33">
          <mxGeometry relative="1" as="geometry" />
        </mxCell>
        <mxCell id="-JsXzYVeTdhQIKo50ZQ9-7" value="Data Adjusment" style="shape=cylinder3;whiteSpace=wrap;html=1;boundedLbl=1;backgroundOutline=1;size=15;" vertex="1" parent="9nfMRMWuMNIvAf5btHpz-33">
          <mxGeometry x="95" y="90" width="60" height="80" as="geometry" />
        </mxCell>
        <mxCell id="-JsXzYVeTdhQIKo50ZQ9-8" value="Saldo ERK" style="swimlane;html=1;startSize=20;" vertex="1" parent="9nfMRMWuMNIvAf5btHpz-2">
          <mxGeometry x="1000" y="20" width="250" height="1020" as="geometry" />
        </mxCell>
        <mxCell id="-JsXzYVeTdhQIKo50ZQ9-12" value="Proses Kredit" style="whiteSpace=wrap;html=1;dashed=0;" vertex="1" parent="-JsXzYVeTdhQIKo50ZQ9-8">
          <mxGeometry x="80" y="640" width="120" height="60" as="geometry" />
        </mxCell>
        <mxCell id="-JsXzYVeTdhQIKo50ZQ9-21" style="edgeStyle=orthogonalEdgeStyle;rounded=0;orthogonalLoop=1;jettySize=auto;html=1;exitX=0.5;exitY=1;exitDx=0;exitDy=0;entryX=0.5;entryY=0;entryDx=0;entryDy=0;" edge="1" parent="-JsXzYVeTdhQIKo50ZQ9-8" source="-JsXzYVeTdhQIKo50ZQ9-16" target="-JsXzYVeTdhQIKo50ZQ9-12">
          <mxGeometry relative="1" as="geometry" />
        </mxCell>
        <mxCell id="-JsXzYVeTdhQIKo50ZQ9-16" value="Proses Debit" style="whiteSpace=wrap;html=1;dashed=0;" vertex="1" parent="-JsXzYVeTdhQIKo50ZQ9-8">
          <mxGeometry x="80" y="550" width="120" height="60" as="geometry" />
        </mxCell>
        <mxCell id="-JsXzYVeTdhQIKo50ZQ9-22" value="Selisih Kredit &amp;amp; Debit" style="shape=process;whiteSpace=wrap;html=1;backgroundOutline=1;" vertex="1" parent="-JsXzYVeTdhQIKo50ZQ9-8">
          <mxGeometry x="80" y="750" width="120" height="60" as="geometry" />
        </mxCell>
        <mxCell id="-JsXzYVeTdhQIKo50ZQ9-23" style="edgeStyle=orthogonalEdgeStyle;rounded=0;orthogonalLoop=1;jettySize=auto;html=1;exitX=0.5;exitY=1;exitDx=0;exitDy=0;entryX=0.5;entryY=0;entryDx=0;entryDy=0;" edge="1" parent="-JsXzYVeTdhQIKo50ZQ9-8" source="-JsXzYVeTdhQIKo50ZQ9-12" target="-JsXzYVeTdhQIKo50ZQ9-22">
          <mxGeometry relative="1" as="geometry" />
        </mxCell>
        <mxCell id="EYavhJbyAll1e3HKWRIk-1" value="" style="shape=mxgraph.bpmn.shape;html=1;verticalLabelPosition=bottom;labelBackgroundColor=#ffffff;verticalAlign=top;perimeter=ellipsePerimeter;outline=end;symbol=terminate;rounded=0;shadow=0;comic=0;strokeWidth=1;fontFamily=Verdana;fontSize=12;align=center;" vertex="1" parent="-JsXzYVeTdhQIKo50ZQ9-8">
          <mxGeometry x="120" y="960" width="40" height="40" as="geometry" />
        </mxCell>
        <mxCell id="-JsXzYVeTdhQIKo50ZQ9-17" style="edgeStyle=orthogonalEdgeStyle;rounded=0;orthogonalLoop=1;jettySize=auto;html=1;exitX=0;exitY=0.5;exitDx=0;exitDy=0;entryX=1;entryY=0.5;entryDx=0;entryDy=0;" edge="1" parent="9nfMRMWuMNIvAf5btHpz-2" source="-JsXzYVeTdhQIKo50ZQ9-16" target="9nfMRMWuMNIvAf5btHpz-52">
          <mxGeometry relative="1" as="geometry">
            <Array as="points">
              <mxPoint x="480" y="600" />
              <mxPoint x="480" y="300" />
            </Array>
          </mxGeometry>
        </mxCell>
        <mxCell id="-JsXzYVeTdhQIKo50ZQ9-18" style="edgeStyle=orthogonalEdgeStyle;rounded=0;orthogonalLoop=1;jettySize=auto;html=1;exitX=0;exitY=0.5;exitDx=0;exitDy=0;entryX=1;entryY=0.5;entryDx=0;entryDy=0;" edge="1" parent="9nfMRMWuMNIvAf5btHpz-2" source="-JsXzYVeTdhQIKo50ZQ9-16" target="-JsXzYVeTdhQIKo50ZQ9-2">
          <mxGeometry relative="1" as="geometry">
            <Array as="points">
              <mxPoint x="730" y="600" />
              <mxPoint x="730" y="300" />
            </Array>
          </mxGeometry>
        </mxCell>
        <mxCell id="-JsXzYVeTdhQIKo50ZQ9-19" style="edgeStyle=orthogonalEdgeStyle;rounded=0;orthogonalLoop=1;jettySize=auto;html=1;exitX=0;exitY=0.5;exitDx=0;exitDy=0;entryX=1;entryY=0.5;entryDx=0;entryDy=0;" edge="1" parent="9nfMRMWuMNIvAf5btHpz-2" source="-JsXzYVeTdhQIKo50ZQ9-16" target="-JsXzYVeTdhQIKo50ZQ9-5">
          <mxGeometry relative="1" as="geometry">
            <Array as="points">
              <mxPoint x="980" y="600" />
              <mxPoint x="980" y="300" />
            </Array>
          </mxGeometry>
        </mxCell>
        <mxCell id="-JsXzYVeTdhQIKo50ZQ9-20" style="edgeStyle=orthogonalEdgeStyle;rounded=0;orthogonalLoop=1;jettySize=auto;html=1;exitX=1;exitY=0.5;exitDx=0;exitDy=0;entryX=1;entryY=0.25;entryDx=0;entryDy=0;" edge="1" parent="9nfMRMWuMNIvAf5btHpz-2" source="-JsXzYVeTdhQIKo50ZQ9-12" target="-JsXzYVeTdhQIKo50ZQ9-5">
          <mxGeometry relative="1" as="geometry" />
        </mxCell>
        <mxCell id="9nfMRMWuMNIvAf5btHpz-45" value="Data CN" style="shape=cylinder3;whiteSpace=wrap;html=1;boundedLbl=1;backgroundOutline=1;size=15;" vertex="1" parent="1">
          <mxGeometry x="130" y="220" width="60" height="80" as="geometry" />
        </mxCell>
        <mxCell id="9nfMRMWuMNIvAf5btHpz-46" style="edgeStyle=orthogonalEdgeStyle;rounded=0;orthogonalLoop=1;jettySize=auto;html=1;exitX=0.5;exitY=1;exitDx=0;exitDy=0;" edge="1" parent="1" source="9nfMRMWuMNIvAf5btHpz-6" target="9nfMRMWuMNIvAf5btHpz-45">
          <mxGeometry relative="1" as="geometry" />
        </mxCell>
        <mxCell id="9nfMRMWuMNIvAf5btHpz-48" style="edgeStyle=orthogonalEdgeStyle;rounded=0;orthogonalLoop=1;jettySize=auto;html=1;exitX=0.5;exitY=0;exitDx=0;exitDy=0;entryX=0.5;entryY=1;entryDx=0;entryDy=0;entryPerimeter=0;" edge="1" parent="1" source="9nfMRMWuMNIvAf5btHpz-10" target="9nfMRMWuMNIvAf5btHpz-45">
          <mxGeometry relative="1" as="geometry" />
        </mxCell>
        <mxCell id="9nfMRMWuMNIvAf5btHpz-49" value="Data Claim Bulanan" style="shape=document;whiteSpace=wrap;html=1;boundedLbl=1;" vertex="1" parent="1">
          <mxGeometry x="100" y="440" width="120" height="80" as="geometry" />
        </mxCell>
        <mxCell id="9nfMRMWuMNIvAf5btHpz-50" style="edgeStyle=orthogonalEdgeStyle;rounded=0;orthogonalLoop=1;jettySize=auto;html=1;exitX=0.5;exitY=1;exitDx=0;exitDy=0;entryX=0.5;entryY=0;entryDx=0;entryDy=0;" edge="1" parent="1" source="9nfMRMWuMNIvAf5btHpz-10" target="9nfMRMWuMNIvAf5btHpz-49">
          <mxGeometry relative="1" as="geometry" />
        </mxCell>
        <mxCell id="-JsXzYVeTdhQIKo50ZQ9-1" style="edgeStyle=orthogonalEdgeStyle;rounded=0;orthogonalLoop=1;jettySize=auto;html=1;exitX=0.5;exitY=1;exitDx=0;exitDy=0;exitPerimeter=0;" edge="1" parent="1" source="9nfMRMWuMNIvAf5btHpz-51" target="9nfMRMWuMNIvAf5btHpz-52">
          <mxGeometry relative="1" as="geometry" />
        </mxCell>
        <mxCell id="9nfMRMWuMNIvAf5btHpz-51" value="Data PMS" style="shape=cylinder3;whiteSpace=wrap;html=1;boundedLbl=1;backgroundOutline=1;size=15;" vertex="1" parent="1">
          <mxGeometry x="390" y="130" width="60" height="80" as="geometry" />
        </mxCell>
        <mxCell id="-JsXzYVeTdhQIKo50ZQ9-13" style="edgeStyle=orthogonalEdgeStyle;rounded=0;orthogonalLoop=1;jettySize=auto;html=1;exitX=0;exitY=0.5;exitDx=0;exitDy=0;entryX=1;entryY=0.5;entryDx=0;entryDy=0;" edge="1" parent="1" source="-JsXzYVeTdhQIKo50ZQ9-12" target="9nfMRMWuMNIvAf5btHpz-49">
          <mxGeometry relative="1" as="geometry">
            <Array as="points">
              <mxPoint x="270" y="710" />
              <mxPoint x="270" y="480" />
            </Array>
          </mxGeometry>
        </mxCell>
        <mxCell id="EYavhJbyAll1e3HKWRIk-5" style="edgeStyle=orthogonalEdgeStyle;rounded=0;orthogonalLoop=1;jettySize=auto;html=1;exitX=1;exitY=0.5;exitDx=0;exitDy=0;entryX=0.5;entryY=0;entryDx=0;entryDy=0;" edge="1" parent="1" source="EYavhJbyAll1e3HKWRIk-3" target="EYavhJbyAll1e3HKWRIk-1">
          <mxGeometry relative="1" as="geometry" />
        </mxCell>
        <mxCell id="EYavhJbyAll1e3HKWRIk-3" value="Data Saldo ERK" style="shape=document;whiteSpace=wrap;html=1;boundedLbl=1;" vertex="1" parent="1">
          <mxGeometry x="1120" y="880" width="120" height="80" as="geometry" />
        </mxCell>
        <mxCell id="EYavhJbyAll1e3HKWRIk-4" style="edgeStyle=orthogonalEdgeStyle;rounded=0;orthogonalLoop=1;jettySize=auto;html=1;exitX=0.5;exitY=1;exitDx=0;exitDy=0;entryX=0.5;entryY=0;entryDx=0;entryDy=0;" edge="1" parent="1" source="-JsXzYVeTdhQIKo50ZQ9-22" target="EYavhJbyAll1e3HKWRIk-3">
          <mxGeometry relative="1" as="geometry" />
        </mxCell>
      </root>
    </mxGraphModel>
  </diagram>
  <diagram id="BO6ayWGA-2qq-vXCKeyE" name="BP-Approval">
    <mxGraphModel dx="2835" dy="2135" grid="1" gridSize="10" guides="1" tooltips="1" connect="1" arrows="1" fold="1" page="1" pageScale="1" pageWidth="850" pageHeight="1100" math="0" shadow="0">
      <root>
        <mxCell id="0" />
        <mxCell id="1" parent="0" />
        <mxCell id="p57Cl0h-9d4aDs1T7yZe-1" value="" style="rounded=0;whiteSpace=wrap;html=1;" vertex="1" parent="1">
          <mxGeometry x="-30" y="-20" width="1120" height="1060" as="geometry" />
        </mxCell>
        <mxCell id="p57Cl0h-9d4aDs1T7yZe-2" value="Approval" style="swimlane;html=1;childLayout=stackLayout;startSize=20;rounded=0;shadow=0;comic=0;labelBackgroundColor=none;strokeWidth=1;fontFamily=Verdana;fontSize=12;align=center;" vertex="1" parent="1">
          <mxGeometry x="40" y="20" width="1000" height="980" as="geometry" />
        </mxCell>
        <mxCell id="p57Cl0h-9d4aDs1T7yZe-3" value="Data Pengajuan" style="swimlane;html=1;startSize=20;" vertex="1" parent="p57Cl0h-9d4aDs1T7yZe-2">
          <mxGeometry y="20" width="250" height="960" as="geometry" />
        </mxCell>
        <mxCell id="p57Cl0h-9d4aDs1T7yZe-4" value="" style="ellipse;whiteSpace=wrap;html=1;rounded=0;shadow=0;comic=0;labelBackgroundColor=none;strokeWidth=1;fillColor=#000000;fontFamily=Verdana;fontSize=12;align=center;" vertex="1" parent="p57Cl0h-9d4aDs1T7yZe-3">
          <mxGeometry x="100" y="30" width="40" height="40" as="geometry" />
        </mxCell>
        <mxCell id="p57Cl0h-9d4aDs1T7yZe-5" value="Start" style="rounded=1;whiteSpace=wrap;html=1;shadow=0;comic=0;labelBackgroundColor=none;strokeWidth=1;fontFamily=Verdana;fontSize=12;align=center;arcSize=50;" vertex="1" parent="p57Cl0h-9d4aDs1T7yZe-3">
          <mxGeometry x="70" y="100" width="100" height="30" as="geometry" />
        </mxCell>
        <mxCell id="p57Cl0h-9d4aDs1T7yZe-6" style="edgeStyle=orthogonalEdgeStyle;rounded=0;html=1;labelBackgroundColor=none;startArrow=none;startFill=0;startSize=5;endArrow=classicThin;endFill=1;endSize=5;jettySize=auto;orthogonalLoop=1;strokeWidth=1;fontFamily=Verdana;fontSize=12" edge="1" parent="p57Cl0h-9d4aDs1T7yZe-3" source="p57Cl0h-9d4aDs1T7yZe-4" target="p57Cl0h-9d4aDs1T7yZe-5">
          <mxGeometry relative="1" as="geometry" />
        </mxCell>
        <mxCell id="p57Cl0h-9d4aDs1T7yZe-32" value="Data Pengajuan" style="shape=document;whiteSpace=wrap;html=1;boundedLbl=1;" vertex="1" parent="p57Cl0h-9d4aDs1T7yZe-3">
          <mxGeometry x="60" y="300" width="120" height="80" as="geometry" />
        </mxCell>
        <mxCell id="p57Cl0h-9d4aDs1T7yZe-8" value="GBM" style="swimlane;html=1;startSize=20;" vertex="1" parent="p57Cl0h-9d4aDs1T7yZe-2">
          <mxGeometry x="250" y="20" width="250" height="960" as="geometry" />
        </mxCell>
        <mxCell id="p57Cl0h-9d4aDs1T7yZe-40" value="Outstanding Approval" style="rounded=0;whiteSpace=wrap;html=1;" vertex="1" parent="p57Cl0h-9d4aDs1T7yZe-8">
          <mxGeometry x="65" y="310" width="120" height="60" as="geometry" />
        </mxCell>
        <mxCell id="Uuiw4rKiY6LJXHnrc3dk-1" value="Check Limit" style="rhombus;whiteSpace=wrap;html=1;" vertex="1" parent="p57Cl0h-9d4aDs1T7yZe-8">
          <mxGeometry x="85" y="530" width="80" height="80" as="geometry" />
        </mxCell>
        <mxCell id="NnD3B-KfudUc-QcEn5FG-2" value="Yes" style="edgeStyle=orthogonalEdgeStyle;rounded=0;orthogonalLoop=1;jettySize=auto;html=1;exitX=0.5;exitY=1;exitDx=0;exitDy=0;" edge="1" parent="p57Cl0h-9d4aDs1T7yZe-8" source="NnD3B-KfudUc-QcEn5FG-1" target="Uuiw4rKiY6LJXHnrc3dk-1">
          <mxGeometry relative="1" as="geometry" />
        </mxCell>
        <mxCell id="NnD3B-KfudUc-QcEn5FG-6" value="No" style="edgeStyle=orthogonalEdgeStyle;rounded=0;orthogonalLoop=1;jettySize=auto;html=1;exitX=1;exitY=0.5;exitDx=0;exitDy=0;entryX=1;entryY=0.5;entryDx=0;entryDy=0;" edge="1" parent="p57Cl0h-9d4aDs1T7yZe-8" source="NnD3B-KfudUc-QcEn5FG-1" target="NnD3B-KfudUc-QcEn5FG-5">
          <mxGeometry x="-0.8387" relative="1" as="geometry">
            <Array as="points">
              <mxPoint x="210" y="440" />
              <mxPoint x="210" y="240" />
            </Array>
            <mxPoint as="offset" />
          </mxGeometry>
        </mxCell>
        <mxCell id="NnD3B-KfudUc-QcEn5FG-1" value="Approve" style="rhombus;whiteSpace=wrap;html=1;" vertex="1" parent="p57Cl0h-9d4aDs1T7yZe-8">
          <mxGeometry x="85" y="400" width="80" height="80" as="geometry" />
        </mxCell>
        <mxCell id="NnD3B-KfudUc-QcEn5FG-5" value="A" style="ellipse;whiteSpace=wrap;html=1;rounded=0;shadow=0;comic=0;labelBackgroundColor=none;strokeWidth=1;fontFamily=Verdana;fontSize=12;align=center;fillColor=#dae8fc;strokeColor=#6c8ebf;" vertex="1" parent="p57Cl0h-9d4aDs1T7yZe-8">
          <mxGeometry x="105" y="220" width="40" height="40" as="geometry" />
        </mxCell>
        <mxCell id="p57Cl0h-9d4aDs1T7yZe-10" value="GSH" style="swimlane;html=1;startSize=20;" vertex="1" parent="p57Cl0h-9d4aDs1T7yZe-2">
          <mxGeometry x="500" y="20" width="250" height="960" as="geometry" />
        </mxCell>
        <mxCell id="Uuiw4rKiY6LJXHnrc3dk-3" value="Outstanding Approval" style="rounded=0;whiteSpace=wrap;html=1;" vertex="1" parent="p57Cl0h-9d4aDs1T7yZe-10">
          <mxGeometry x="65" y="620" width="120" height="60" as="geometry" />
        </mxCell>
        <mxCell id="NnD3B-KfudUc-QcEn5FG-10" value="Approve" style="rhombus;whiteSpace=wrap;html=1;" vertex="1" parent="p57Cl0h-9d4aDs1T7yZe-10">
          <mxGeometry x="85" y="720" width="80" height="80" as="geometry" />
        </mxCell>
        <mxCell id="NnD3B-KfudUc-QcEn5FG-11" style="edgeStyle=orthogonalEdgeStyle;rounded=0;orthogonalLoop=1;jettySize=auto;html=1;exitX=0.5;exitY=1;exitDx=0;exitDy=0;" edge="1" parent="p57Cl0h-9d4aDs1T7yZe-10" source="Uuiw4rKiY6LJXHnrc3dk-3" target="NnD3B-KfudUc-QcEn5FG-10">
          <mxGeometry relative="1" as="geometry" />
        </mxCell>
        <mxCell id="NnD3B-KfudUc-QcEn5FG-12" value="A" style="ellipse;whiteSpace=wrap;html=1;rounded=0;shadow=0;comic=0;labelBackgroundColor=none;strokeWidth=1;fontFamily=Verdana;fontSize=12;align=center;fillColor=#dae8fc;strokeColor=#6c8ebf;" vertex="1" parent="p57Cl0h-9d4aDs1T7yZe-10">
          <mxGeometry x="10" y="680" width="40" height="40" as="geometry" />
        </mxCell>
        <mxCell id="NnD3B-KfudUc-QcEn5FG-14" value="No" style="edgeStyle=orthogonalEdgeStyle;rounded=0;orthogonalLoop=1;jettySize=auto;html=1;exitX=0;exitY=0.5;exitDx=0;exitDy=0;entryX=0.5;entryY=1;entryDx=0;entryDy=0;" edge="1" parent="p57Cl0h-9d4aDs1T7yZe-10" source="NnD3B-KfudUc-QcEn5FG-10" target="NnD3B-KfudUc-QcEn5FG-12">
          <mxGeometry relative="1" as="geometry" />
        </mxCell>
        <mxCell id="p57Cl0h-9d4aDs1T7yZe-14" value="FA" style="swimlane;html=1;startSize=20;" vertex="1" parent="p57Cl0h-9d4aDs1T7yZe-2">
          <mxGeometry x="750" y="20" width="250" height="960" as="geometry" />
        </mxCell>
        <mxCell id="Uuiw4rKiY6LJXHnrc3dk-9" style="edgeStyle=orthogonalEdgeStyle;rounded=0;orthogonalLoop=1;jettySize=auto;html=1;exitX=0.5;exitY=1;exitDx=0;exitDy=0;" edge="1" parent="p57Cl0h-9d4aDs1T7yZe-14" source="Uuiw4rKiY6LJXHnrc3dk-5" target="Uuiw4rKiY6LJXHnrc3dk-8">
          <mxGeometry relative="1" as="geometry" />
        </mxCell>
        <mxCell id="Uuiw4rKiY6LJXHnrc3dk-5" value="Outstanding FA" style="rounded=0;whiteSpace=wrap;html=1;" vertex="1" parent="p57Cl0h-9d4aDs1T7yZe-14">
          <mxGeometry x="65" y="310" width="120" height="60" as="geometry" />
        </mxCell>
        <mxCell id="Uuiw4rKiY6LJXHnrc3dk-12" style="edgeStyle=orthogonalEdgeStyle;rounded=0;orthogonalLoop=1;jettySize=auto;html=1;exitX=0.5;exitY=1;exitDx=0;exitDy=0;" edge="1" parent="p57Cl0h-9d4aDs1T7yZe-14" source="Uuiw4rKiY6LJXHnrc3dk-8" target="NnD3B-KfudUc-QcEn5FG-16">
          <mxGeometry relative="1" as="geometry">
            <mxPoint x="120" y="550" as="targetPoint" />
          </mxGeometry>
        </mxCell>
        <mxCell id="Uuiw4rKiY6LJXHnrc3dk-8" value="Approval FA" style="rounded=0;whiteSpace=wrap;html=1;" vertex="1" parent="p57Cl0h-9d4aDs1T7yZe-14">
          <mxGeometry x="65" y="430" width="120" height="60" as="geometry" />
        </mxCell>
        <mxCell id="NnD3B-KfudUc-QcEn5FG-21" style="edgeStyle=orthogonalEdgeStyle;rounded=0;orthogonalLoop=1;jettySize=auto;html=1;exitX=0.5;exitY=1;exitDx=0;exitDy=0;entryX=0.5;entryY=0;entryDx=0;entryDy=0;" edge="1" parent="p57Cl0h-9d4aDs1T7yZe-14" source="NnD3B-KfudUc-QcEn5FG-16" target="NnD3B-KfudUc-QcEn5FG-20">
          <mxGeometry relative="1" as="geometry" />
        </mxCell>
        <mxCell id="NnD3B-KfudUc-QcEn5FG-16" value="Approve" style="rhombus;whiteSpace=wrap;html=1;" vertex="1" parent="p57Cl0h-9d4aDs1T7yZe-14">
          <mxGeometry x="85" y="540" width="80" height="80" as="geometry" />
        </mxCell>
        <mxCell id="NnD3B-KfudUc-QcEn5FG-20" value="Realisasi FA" style="rounded=0;whiteSpace=wrap;html=1;" vertex="1" parent="p57Cl0h-9d4aDs1T7yZe-14">
          <mxGeometry x="65" y="660" width="120" height="60" as="geometry" />
        </mxCell>
        <mxCell id="3fcrZkIhZC8eAXZqKWwY-1" value="Voucher Realisasi" style="shape=document;whiteSpace=wrap;html=1;boundedLbl=1;" vertex="1" parent="p57Cl0h-9d4aDs1T7yZe-14">
          <mxGeometry x="65" y="760" width="120" height="80" as="geometry" />
        </mxCell>
        <mxCell id="3fcrZkIhZC8eAXZqKWwY-2" style="edgeStyle=orthogonalEdgeStyle;rounded=0;orthogonalLoop=1;jettySize=auto;html=1;exitX=0.5;exitY=1;exitDx=0;exitDy=0;" edge="1" parent="p57Cl0h-9d4aDs1T7yZe-14" source="NnD3B-KfudUc-QcEn5FG-20" target="3fcrZkIhZC8eAXZqKWwY-1">
          <mxGeometry relative="1" as="geometry" />
        </mxCell>
        <mxCell id="NnD3B-KfudUc-QcEn5FG-3" style="edgeStyle=orthogonalEdgeStyle;rounded=0;orthogonalLoop=1;jettySize=auto;html=1;exitX=0;exitY=0.5;exitDx=0;exitDy=0;" edge="1" parent="p57Cl0h-9d4aDs1T7yZe-2" source="p57Cl0h-9d4aDs1T7yZe-40" target="p57Cl0h-9d4aDs1T7yZe-32">
          <mxGeometry relative="1" as="geometry" />
        </mxCell>
        <mxCell id="NnD3B-KfudUc-QcEn5FG-8" value="Yes" style="edgeStyle=orthogonalEdgeStyle;rounded=0;orthogonalLoop=1;jettySize=auto;html=1;exitX=0.5;exitY=1;exitDx=0;exitDy=0;entryX=0;entryY=0.5;entryDx=0;entryDy=0;" edge="1" parent="p57Cl0h-9d4aDs1T7yZe-2" source="Uuiw4rKiY6LJXHnrc3dk-1" target="Uuiw4rKiY6LJXHnrc3dk-3">
          <mxGeometry x="-0.4348" relative="1" as="geometry">
            <mxPoint as="offset" />
          </mxGeometry>
        </mxCell>
        <mxCell id="NnD3B-KfudUc-QcEn5FG-9" value="No" style="edgeStyle=orthogonalEdgeStyle;rounded=0;orthogonalLoop=1;jettySize=auto;html=1;exitX=1;exitY=0.5;exitDx=0;exitDy=0;entryX=0;entryY=0.5;entryDx=0;entryDy=0;" edge="1" parent="p57Cl0h-9d4aDs1T7yZe-2" source="Uuiw4rKiY6LJXHnrc3dk-1" target="Uuiw4rKiY6LJXHnrc3dk-5">
          <mxGeometry x="-0.888" relative="1" as="geometry">
            <Array as="points">
              <mxPoint x="740" y="590" />
              <mxPoint x="740" y="360" />
            </Array>
            <mxPoint as="offset" />
          </mxGeometry>
        </mxCell>
        <mxCell id="NnD3B-KfudUc-QcEn5FG-15" value="Yes" style="edgeStyle=orthogonalEdgeStyle;rounded=0;orthogonalLoop=1;jettySize=auto;html=1;exitX=1;exitY=0.5;exitDx=0;exitDy=0;entryX=0;entryY=0.75;entryDx=0;entryDy=0;" edge="1" parent="p57Cl0h-9d4aDs1T7yZe-2" source="NnD3B-KfudUc-QcEn5FG-10" target="Uuiw4rKiY6LJXHnrc3dk-5">
          <mxGeometry x="-0.8727" relative="1" as="geometry">
            <Array as="points">
              <mxPoint x="740" y="780" />
              <mxPoint x="740" y="375" />
            </Array>
            <mxPoint as="offset" />
          </mxGeometry>
        </mxCell>
        <mxCell id="p57Cl0h-9d4aDs1T7yZe-29" value="Data PMS" style="shape=cylinder3;whiteSpace=wrap;html=1;boundedLbl=1;backgroundOutline=1;size=15;" vertex="1" parent="1">
          <mxGeometry x="130" y="220" width="60" height="80" as="geometry" />
        </mxCell>
        <mxCell id="p57Cl0h-9d4aDs1T7yZe-30" style="edgeStyle=orthogonalEdgeStyle;rounded=0;orthogonalLoop=1;jettySize=auto;html=1;exitX=0.5;exitY=1;exitDx=0;exitDy=0;" edge="1" parent="1" source="p57Cl0h-9d4aDs1T7yZe-5" target="p57Cl0h-9d4aDs1T7yZe-29">
          <mxGeometry relative="1" as="geometry" />
        </mxCell>
        <mxCell id="p57Cl0h-9d4aDs1T7yZe-31" style="edgeStyle=orthogonalEdgeStyle;rounded=0;orthogonalLoop=1;jettySize=auto;html=1;entryX=0.5;entryY=1;entryDx=0;entryDy=0;entryPerimeter=0;" edge="1" parent="1" source="p57Cl0h-9d4aDs1T7yZe-32" target="p57Cl0h-9d4aDs1T7yZe-29">
          <mxGeometry relative="1" as="geometry">
            <mxPoint x="160" y="335" as="sourcePoint" />
          </mxGeometry>
        </mxCell>
        <mxCell id="NnD3B-KfudUc-QcEn5FG-17" value="A" style="ellipse;whiteSpace=wrap;html=1;rounded=0;shadow=0;comic=0;labelBackgroundColor=none;strokeWidth=1;fontFamily=Verdana;fontSize=12;align=center;fillColor=#dae8fc;strokeColor=#6c8ebf;" vertex="1" parent="1">
          <mxGeometry x="800" y="540" width="40" height="40" as="geometry" />
        </mxCell>
        <mxCell id="NnD3B-KfudUc-QcEn5FG-19" value="No" style="edgeStyle=orthogonalEdgeStyle;rounded=0;orthogonalLoop=1;jettySize=auto;html=1;exitX=0;exitY=0.5;exitDx=0;exitDy=0;entryX=0.5;entryY=1;entryDx=0;entryDy=0;" edge="1" parent="1" source="NnD3B-KfudUc-QcEn5FG-16" target="NnD3B-KfudUc-QcEn5FG-17">
          <mxGeometry x="-0.3333" relative="1" as="geometry">
            <mxPoint as="offset" />
          </mxGeometry>
        </mxCell>
        <mxCell id="8To6-X5MfzpnIhDIa6a9-2" value="" style="shape=mxgraph.bpmn.shape;html=1;verticalLabelPosition=bottom;labelBackgroundColor=#ffffff;verticalAlign=top;perimeter=ellipsePerimeter;outline=end;symbol=terminate;rounded=0;shadow=0;comic=0;strokeWidth=1;fontFamily=Verdana;fontSize=12;align=center;" vertex="1" parent="1">
          <mxGeometry x="890" y="930" width="40" height="40" as="geometry" />
        </mxCell>
        <mxCell id="8To6-X5MfzpnIhDIa6a9-3" style="edgeStyle=orthogonalEdgeStyle;rounded=0;orthogonalLoop=1;jettySize=auto;html=1;exitX=1;exitY=0.5;exitDx=0;exitDy=0;entryX=0.5;entryY=0;entryDx=0;entryDy=0;" edge="1" parent="1" source="3fcrZkIhZC8eAXZqKWwY-1" target="8To6-X5MfzpnIhDIa6a9-2">
          <mxGeometry relative="1" as="geometry" />
        </mxCell>
      </root>
    </mxGraphModel>
  </diagram>
  <diagram id="_9YadBuDxLgkFFutiTeS" name="BP-Rekening">
    <mxGraphModel dx="1984" dy="1691" grid="1" gridSize="10" guides="1" tooltips="1" connect="1" arrows="1" fold="1" page="1" pageScale="1" pageWidth="850" pageHeight="1100" math="0" shadow="0">
      <root>
        <mxCell id="0" />
        <mxCell id="1" parent="0" />
        <mxCell id="7wGeSUIXs_VYBC1kVhob-1" value="" style="rounded=0;whiteSpace=wrap;html=1;" vertex="1" parent="1">
          <mxGeometry x="-30" y="-20" width="640" height="1080" as="geometry" />
        </mxCell>
        <mxCell id="7wGeSUIXs_VYBC1kVhob-2" value="Pengajuan Rekening" style="swimlane;html=1;childLayout=stackLayout;startSize=20;rounded=0;shadow=0;comic=0;labelBackgroundColor=none;strokeWidth=1;fontFamily=Verdana;fontSize=12;align=center;" vertex="1" parent="1">
          <mxGeometry x="40" y="20" width="500" height="980" as="geometry" />
        </mxCell>
        <mxCell id="7wGeSUIXs_VYBC1kVhob-3" value="RBM" style="swimlane;html=1;startSize=20;" vertex="1" parent="7wGeSUIXs_VYBC1kVhob-2">
          <mxGeometry y="20" width="250" height="960" as="geometry" />
        </mxCell>
        <mxCell id="7wGeSUIXs_VYBC1kVhob-4" value="" style="ellipse;whiteSpace=wrap;html=1;rounded=0;shadow=0;comic=0;labelBackgroundColor=none;strokeWidth=1;fillColor=#000000;fontFamily=Verdana;fontSize=12;align=center;" vertex="1" parent="7wGeSUIXs_VYBC1kVhob-3">
          <mxGeometry x="100" y="30" width="40" height="40" as="geometry" />
        </mxCell>
        <mxCell id="7wGeSUIXs_VYBC1kVhob-5" value="Start" style="rounded=1;whiteSpace=wrap;html=1;shadow=0;comic=0;labelBackgroundColor=none;strokeWidth=1;fontFamily=Verdana;fontSize=12;align=center;arcSize=50;" vertex="1" parent="7wGeSUIXs_VYBC1kVhob-3">
          <mxGeometry x="70" y="100" width="100" height="30" as="geometry" />
        </mxCell>
        <mxCell id="7wGeSUIXs_VYBC1kVhob-6" style="edgeStyle=orthogonalEdgeStyle;rounded=0;html=1;labelBackgroundColor=none;startArrow=none;startFill=0;startSize=5;endArrow=classicThin;endFill=1;endSize=5;jettySize=auto;orthogonalLoop=1;strokeWidth=1;fontFamily=Verdana;fontSize=12" edge="1" parent="7wGeSUIXs_VYBC1kVhob-3" source="7wGeSUIXs_VYBC1kVhob-4" target="7wGeSUIXs_VYBC1kVhob-5">
          <mxGeometry relative="1" as="geometry" />
        </mxCell>
        <mxCell id="UT-iAIGNDXHm1CNLenLm-1" value="Pengajuan Baru" style="rounded=0;whiteSpace=wrap;html=1;" vertex="1" parent="7wGeSUIXs_VYBC1kVhob-3">
          <mxGeometry x="60" y="170" width="120" height="60" as="geometry" />
        </mxCell>
        <mxCell id="7wGeSUIXs_VYBC1kVhob-25" style="edgeStyle=orthogonalEdgeStyle;rounded=0;orthogonalLoop=1;jettySize=auto;html=1;exitX=0.5;exitY=1;exitDx=0;exitDy=0;entryX=0.5;entryY=0;entryDx=0;entryDy=0;" edge="1" parent="7wGeSUIXs_VYBC1kVhob-3" source="7wGeSUIXs_VYBC1kVhob-5" target="UT-iAIGNDXHm1CNLenLm-1">
          <mxGeometry relative="1" as="geometry">
            <mxPoint x="120" y="180" as="targetPoint" />
          </mxGeometry>
        </mxCell>
        <mxCell id="Rlgpx-3A3ufXYTJ-RU2y-8" value="Data Cabang" style="shape=document;whiteSpace=wrap;html=1;boundedLbl=1;" vertex="1" parent="7wGeSUIXs_VYBC1kVhob-3">
          <mxGeometry x="10" y="400" width="90" height="60" as="geometry" />
        </mxCell>
        <mxCell id="Rlgpx-3A3ufXYTJ-RU2y-12" style="edgeStyle=orthogonalEdgeStyle;rounded=0;orthogonalLoop=1;jettySize=auto;html=1;exitX=0.5;exitY=0;exitDx=0;exitDy=0;entryX=1;entryY=0.5;entryDx=0;entryDy=0;" edge="1" parent="7wGeSUIXs_VYBC1kVhob-3" source="Rlgpx-3A3ufXYTJ-RU2y-11" target="Rlgpx-3A3ufXYTJ-RU2y-8">
          <mxGeometry relative="1" as="geometry" />
        </mxCell>
        <mxCell id="Rlgpx-3A3ufXYTJ-RU2y-11" value="Submit Data" style="rounded=0;whiteSpace=wrap;html=1;" vertex="1" parent="7wGeSUIXs_VYBC1kVhob-3">
          <mxGeometry x="60" y="500" width="120" height="60" as="geometry" />
        </mxCell>
        <mxCell id="7wGeSUIXs_VYBC1kVhob-8" value="MS" style="swimlane;html=1;startSize=20;" vertex="1" parent="7wGeSUIXs_VYBC1kVhob-2">
          <mxGeometry x="250" y="20" width="250" height="960" as="geometry" />
        </mxCell>
        <mxCell id="7wGeSUIXs_VYBC1kVhob-9" style="edgeStyle=orthogonalEdgeStyle;rounded=0;orthogonalLoop=1;jettySize=auto;html=1;exitX=0.5;exitY=1;exitDx=0;exitDy=0;entryX=0.5;entryY=0;entryDx=0;entryDy=0;" edge="1" parent="7wGeSUIXs_VYBC1kVhob-8" source="7wGeSUIXs_VYBC1kVhob-10" target="7wGeSUIXs_VYBC1kVhob-11">
          <mxGeometry relative="1" as="geometry" />
        </mxCell>
        <mxCell id="7wGeSUIXs_VYBC1kVhob-10" value="Outstanding Approval" style="rounded=0;whiteSpace=wrap;html=1;" vertex="1" parent="7wGeSUIXs_VYBC1kVhob-8">
          <mxGeometry x="65" y="500" width="120" height="60" as="geometry" />
        </mxCell>
        <mxCell id="Rlgpx-3A3ufXYTJ-RU2y-5" value="Yes" style="edgeStyle=orthogonalEdgeStyle;rounded=0;orthogonalLoop=1;jettySize=auto;html=1;exitX=0.5;exitY=1;exitDx=0;exitDy=0;entryX=0.5;entryY=0;entryDx=0;entryDy=0;" edge="1" parent="7wGeSUIXs_VYBC1kVhob-8" source="7wGeSUIXs_VYBC1kVhob-11" target="Rlgpx-3A3ufXYTJ-RU2y-4">
          <mxGeometry relative="1" as="geometry" />
        </mxCell>
        <mxCell id="7wGeSUIXs_VYBC1kVhob-11" value="Approve" style="rhombus;whiteSpace=wrap;html=1;" vertex="1" parent="7wGeSUIXs_VYBC1kVhob-8">
          <mxGeometry x="85" y="600" width="80" height="80" as="geometry" />
        </mxCell>
        <mxCell id="EN6q64rqJjvFvxVQupxm-2" style="edgeStyle=orthogonalEdgeStyle;rounded=0;orthogonalLoop=1;jettySize=auto;html=1;exitX=1;exitY=0.5;exitDx=0;exitDy=0;entryX=0.5;entryY=0;entryDx=0;entryDy=0;" edge="1" parent="7wGeSUIXs_VYBC1kVhob-8" source="Rlgpx-3A3ufXYTJ-RU2y-4" target="EN6q64rqJjvFvxVQupxm-1">
          <mxGeometry relative="1" as="geometry" />
        </mxCell>
        <mxCell id="Rlgpx-3A3ufXYTJ-RU2y-4" value="Data Rekening" style="shape=document;whiteSpace=wrap;html=1;boundedLbl=1;" vertex="1" parent="7wGeSUIXs_VYBC1kVhob-8">
          <mxGeometry x="65" y="720" width="120" height="80" as="geometry" />
        </mxCell>
        <mxCell id="EN6q64rqJjvFvxVQupxm-1" value="" style="shape=mxgraph.bpmn.shape;html=1;verticalLabelPosition=bottom;labelBackgroundColor=#ffffff;verticalAlign=top;perimeter=ellipsePerimeter;outline=end;symbol=terminate;rounded=0;shadow=0;comic=0;strokeWidth=1;fontFamily=Verdana;fontSize=12;align=center;" vertex="1" parent="7wGeSUIXs_VYBC1kVhob-8">
          <mxGeometry x="105" y="860" width="40" height="40" as="geometry" />
        </mxCell>
        <mxCell id="Rlgpx-3A3ufXYTJ-RU2y-14" style="edgeStyle=orthogonalEdgeStyle;rounded=0;orthogonalLoop=1;jettySize=auto;html=1;exitX=1;exitY=0.5;exitDx=0;exitDy=0;entryX=0;entryY=0.5;entryDx=0;entryDy=0;" edge="1" parent="7wGeSUIXs_VYBC1kVhob-2" source="Rlgpx-3A3ufXYTJ-RU2y-11" target="7wGeSUIXs_VYBC1kVhob-10">
          <mxGeometry relative="1" as="geometry" />
        </mxCell>
        <mxCell id="Rlgpx-3A3ufXYTJ-RU2y-15" value="No" style="edgeStyle=orthogonalEdgeStyle;rounded=0;orthogonalLoop=1;jettySize=auto;html=1;exitX=1;exitY=0.5;exitDx=0;exitDy=0;entryX=1;entryY=0.5;entryDx=0;entryDy=0;" edge="1" parent="7wGeSUIXs_VYBC1kVhob-2" source="7wGeSUIXs_VYBC1kVhob-11" target="UT-iAIGNDXHm1CNLenLm-1">
          <mxGeometry x="-0.9363" relative="1" as="geometry">
            <Array as="points">
              <mxPoint x="470" y="660" />
              <mxPoint x="470" y="220" />
            </Array>
            <mxPoint x="-1" as="offset" />
          </mxGeometry>
        </mxCell>
        <mxCell id="Rlgpx-3A3ufXYTJ-RU2y-9" value="No" style="edgeStyle=orthogonalEdgeStyle;rounded=0;orthogonalLoop=1;jettySize=auto;html=1;exitX=0;exitY=0.5;exitDx=0;exitDy=0;entryX=0.5;entryY=0;entryDx=0;entryDy=0;" edge="1" parent="1" source="Rlgpx-3A3ufXYTJ-RU2y-1" target="Rlgpx-3A3ufXYTJ-RU2y-8">
          <mxGeometry relative="1" as="geometry" />
        </mxCell>
        <mxCell id="Rlgpx-3A3ufXYTJ-RU2y-10" value="Yes" style="edgeStyle=orthogonalEdgeStyle;rounded=0;orthogonalLoop=1;jettySize=auto;html=1;exitX=1;exitY=0.5;exitDx=0;exitDy=0;" edge="1" parent="1" source="Rlgpx-3A3ufXYTJ-RU2y-1" target="Rlgpx-3A3ufXYTJ-RU2y-7">
          <mxGeometry relative="1" as="geometry" />
        </mxCell>
        <mxCell id="Rlgpx-3A3ufXYTJ-RU2y-1" value="Outlet" style="rhombus;whiteSpace=wrap;html=1;" vertex="1" parent="1">
          <mxGeometry x="120" y="310" width="80" height="80" as="geometry" />
        </mxCell>
        <mxCell id="Rlgpx-3A3ufXYTJ-RU2y-2" style="edgeStyle=orthogonalEdgeStyle;rounded=0;orthogonalLoop=1;jettySize=auto;html=1;exitX=0.5;exitY=1;exitDx=0;exitDy=0;" edge="1" parent="1" source="UT-iAIGNDXHm1CNLenLm-1" target="Rlgpx-3A3ufXYTJ-RU2y-1">
          <mxGeometry relative="1" as="geometry" />
        </mxCell>
        <mxCell id="Rlgpx-3A3ufXYTJ-RU2y-7" value="Data Outlet" style="shape=document;whiteSpace=wrap;html=1;boundedLbl=1;" vertex="1" parent="1">
          <mxGeometry x="190" y="440" width="90" height="60" as="geometry" />
        </mxCell>
        <mxCell id="Rlgpx-3A3ufXYTJ-RU2y-13" style="edgeStyle=orthogonalEdgeStyle;rounded=0;orthogonalLoop=1;jettySize=auto;html=1;exitX=0.5;exitY=0;exitDx=0;exitDy=0;entryX=0;entryY=0.5;entryDx=0;entryDy=0;" edge="1" parent="1" source="Rlgpx-3A3ufXYTJ-RU2y-11" target="Rlgpx-3A3ufXYTJ-RU2y-7">
          <mxGeometry relative="1" as="geometry" />
        </mxCell>
      </root>
    </mxGraphModel>
  </diagram>
  <diagram id="_eaC5V97pEhCVSepiRMM" name="BP-Expense Cash">
    <mxGraphModel dx="2173" dy="1790" grid="1" gridSize="10" guides="1" tooltips="1" connect="1" arrows="1" fold="1" page="1" pageScale="1" pageWidth="850" pageHeight="1100" math="0" shadow="0">
      <root>
        <mxCell id="0" />
        <mxCell id="1" parent="0" />
        <mxCell id="_JSY_UYZVq-XVwTAvxOI-1" value="" style="rounded=0;whiteSpace=wrap;html=1;" vertex="1" parent="1">
          <mxGeometry x="-30" y="-20" width="840" height="1060" as="geometry" />
        </mxCell>
        <mxCell id="_JSY_UYZVq-XVwTAvxOI-2" value="Report Expense Cash" style="swimlane;html=1;childLayout=stackLayout;startSize=20;rounded=0;shadow=0;comic=0;labelBackgroundColor=none;strokeWidth=1;fontFamily=Verdana;fontSize=12;align=center;" vertex="1" parent="1">
          <mxGeometry x="40" y="20" width="750" height="980" as="geometry" />
        </mxCell>
        <mxCell id="_JSY_UYZVq-XVwTAvxOI-3" value="Outstanding Expense Cash" style="swimlane;html=1;startSize=20;" vertex="1" parent="_JSY_UYZVq-XVwTAvxOI-2">
          <mxGeometry y="20" width="250" height="960" as="geometry" />
        </mxCell>
        <mxCell id="_JSY_UYZVq-XVwTAvxOI-4" value="" style="ellipse;whiteSpace=wrap;html=1;rounded=0;shadow=0;comic=0;labelBackgroundColor=none;strokeWidth=1;fillColor=#000000;fontFamily=Verdana;fontSize=12;align=center;" vertex="1" parent="_JSY_UYZVq-XVwTAvxOI-3">
          <mxGeometry x="100" y="30" width="40" height="40" as="geometry" />
        </mxCell>
        <mxCell id="_JSY_UYZVq-XVwTAvxOI-5" value="Start" style="rounded=1;whiteSpace=wrap;html=1;shadow=0;comic=0;labelBackgroundColor=none;strokeWidth=1;fontFamily=Verdana;fontSize=12;align=center;arcSize=50;" vertex="1" parent="_JSY_UYZVq-XVwTAvxOI-3">
          <mxGeometry x="70" y="100" width="100" height="30" as="geometry" />
        </mxCell>
        <mxCell id="_JSY_UYZVq-XVwTAvxOI-6" style="edgeStyle=orthogonalEdgeStyle;rounded=0;html=1;labelBackgroundColor=none;startArrow=none;startFill=0;startSize=5;endArrow=classicThin;endFill=1;endSize=5;jettySize=auto;orthogonalLoop=1;strokeWidth=1;fontFamily=Verdana;fontSize=12" edge="1" parent="_JSY_UYZVq-XVwTAvxOI-3" source="_JSY_UYZVq-XVwTAvxOI-4" target="_JSY_UYZVq-XVwTAvxOI-5">
          <mxGeometry relative="1" as="geometry" />
        </mxCell>
        <mxCell id="_JSY_UYZVq-XVwTAvxOI-7" value="Data Outstanding Expense Cash" style="shape=document;whiteSpace=wrap;html=1;boundedLbl=1;" vertex="1" parent="_JSY_UYZVq-XVwTAvxOI-3">
          <mxGeometry x="60" y="300" width="120" height="80" as="geometry" />
        </mxCell>
        <mxCell id="_JSY_UYZVq-XVwTAvxOI-8" value="DM, AS" style="swimlane;html=1;startSize=20;" vertex="1" parent="_JSY_UYZVq-XVwTAvxOI-2">
          <mxGeometry x="250" y="20" width="250" height="960" as="geometry" />
        </mxCell>
        <mxCell id="_JSY_UYZVq-XVwTAvxOI-49" style="edgeStyle=orthogonalEdgeStyle;rounded=0;orthogonalLoop=1;jettySize=auto;html=1;exitX=0.5;exitY=1;exitDx=0;exitDy=0;entryX=0.5;entryY=0;entryDx=0;entryDy=0;" edge="1" parent="_JSY_UYZVq-XVwTAvxOI-8" source="_JSY_UYZVq-XVwTAvxOI-42" target="_JSY_UYZVq-XVwTAvxOI-48">
          <mxGeometry relative="1" as="geometry" />
        </mxCell>
        <mxCell id="_JSY_UYZVq-XVwTAvxOI-42" value="Create Report Expense" style="rounded=0;whiteSpace=wrap;html=1;" vertex="1" parent="_JSY_UYZVq-XVwTAvxOI-8">
          <mxGeometry x="65" y="310" width="120" height="60" as="geometry" />
        </mxCell>
        <mxCell id="_JSY_UYZVq-XVwTAvxOI-47" style="edgeStyle=orthogonalEdgeStyle;rounded=0;orthogonalLoop=1;jettySize=auto;html=1;exitX=0.5;exitY=1;exitDx=0;exitDy=0;entryX=0.5;entryY=0;entryDx=0;entryDy=0;" edge="1" parent="_JSY_UYZVq-XVwTAvxOI-8" source="_JSY_UYZVq-XVwTAvxOI-44" target="_JSY_UYZVq-XVwTAvxOI-46">
          <mxGeometry relative="1" as="geometry" />
        </mxCell>
        <mxCell id="_JSY_UYZVq-XVwTAvxOI-44" value="Export Report to Excel" style="whiteSpace=wrap;html=1;rounded=0;" vertex="1" parent="_JSY_UYZVq-XVwTAvxOI-8">
          <mxGeometry x="65" y="550" width="120" height="60" as="geometry" />
        </mxCell>
        <mxCell id="_JSY_UYZVq-XVwTAvxOI-46" value="&lt;div&gt;Send hardcopy&amp;nbsp;&lt;/div&gt;&lt;div&gt;to HO&lt;/div&gt;" style="whiteSpace=wrap;html=1;rounded=0;" vertex="1" parent="_JSY_UYZVq-XVwTAvxOI-8">
          <mxGeometry x="65" y="660" width="120" height="60" as="geometry" />
        </mxCell>
        <mxCell id="_JSY_UYZVq-XVwTAvxOI-50" value="Yes" style="edgeStyle=orthogonalEdgeStyle;rounded=0;orthogonalLoop=1;jettySize=auto;html=1;exitX=0.5;exitY=1;exitDx=0;exitDy=0;" edge="1" parent="_JSY_UYZVq-XVwTAvxOI-8" source="_JSY_UYZVq-XVwTAvxOI-48" target="_JSY_UYZVq-XVwTAvxOI-44">
          <mxGeometry relative="1" as="geometry" />
        </mxCell>
        <mxCell id="_JSY_UYZVq-XVwTAvxOI-51" value="No" style="edgeStyle=orthogonalEdgeStyle;rounded=0;orthogonalLoop=1;jettySize=auto;html=1;exitX=1;exitY=0.5;exitDx=0;exitDy=0;entryX=1;entryY=0.5;entryDx=0;entryDy=0;" edge="1" parent="_JSY_UYZVq-XVwTAvxOI-8" source="_JSY_UYZVq-XVwTAvxOI-48" target="_JSY_UYZVq-XVwTAvxOI-42">
          <mxGeometry x="-0.7619" relative="1" as="geometry">
            <Array as="points">
              <mxPoint x="220" y="460" />
              <mxPoint x="220" y="340" />
            </Array>
            <mxPoint as="offset" />
          </mxGeometry>
        </mxCell>
        <mxCell id="_JSY_UYZVq-XVwTAvxOI-48" value="Approve" style="rhombus;whiteSpace=wrap;html=1;" vertex="1" parent="_JSY_UYZVq-XVwTAvxOI-8">
          <mxGeometry x="85" y="420" width="80" height="80" as="geometry" />
        </mxCell>
        <mxCell id="_JSY_UYZVq-XVwTAvxOI-15" value="FA" style="swimlane;html=1;startSize=20;" vertex="1" parent="_JSY_UYZVq-XVwTAvxOI-2">
          <mxGeometry x="500" y="20" width="250" height="960" as="geometry" />
        </mxCell>
        <mxCell id="_JSY_UYZVq-XVwTAvxOI-52" value="&lt;div&gt;Validation&amp;nbsp;&lt;/div&gt;&lt;div&gt;&amp;amp; Approval&lt;/div&gt;" style="rounded=0;whiteSpace=wrap;html=1;" vertex="1" parent="_JSY_UYZVq-XVwTAvxOI-15">
          <mxGeometry x="65" y="530" width="120" height="60" as="geometry" />
        </mxCell>
        <mxCell id="_JSY_UYZVq-XVwTAvxOI-59" value="Yes" style="edgeStyle=orthogonalEdgeStyle;rounded=0;orthogonalLoop=1;jettySize=auto;html=1;exitX=0.5;exitY=1;exitDx=0;exitDy=0;entryX=0.5;entryY=0;entryDx=0;entryDy=0;" edge="1" parent="_JSY_UYZVq-XVwTAvxOI-15" source="_JSY_UYZVq-XVwTAvxOI-54" target="_JSY_UYZVq-XVwTAvxOI-58">
          <mxGeometry relative="1" as="geometry" />
        </mxCell>
        <mxCell id="_JSY_UYZVq-XVwTAvxOI-54" value="Approve" style="rhombus;whiteSpace=wrap;html=1;" vertex="1" parent="_JSY_UYZVq-XVwTAvxOI-15">
          <mxGeometry x="85" y="650" width="80" height="80" as="geometry" />
        </mxCell>
        <mxCell id="_JSY_UYZVq-XVwTAvxOI-56" style="edgeStyle=orthogonalEdgeStyle;rounded=0;orthogonalLoop=1;jettySize=auto;html=1;exitX=0.5;exitY=1;exitDx=0;exitDy=0;entryX=0.5;entryY=0;entryDx=0;entryDy=0;" edge="1" parent="_JSY_UYZVq-XVwTAvxOI-15" source="_JSY_UYZVq-XVwTAvxOI-52" target="_JSY_UYZVq-XVwTAvxOI-54">
          <mxGeometry relative="1" as="geometry" />
        </mxCell>
        <mxCell id="_JSY_UYZVq-XVwTAvxOI-58" value="Penyesuaian Saldo" style="rounded=0;whiteSpace=wrap;html=1;" vertex="1" parent="_JSY_UYZVq-XVwTAvxOI-15">
          <mxGeometry x="65" y="770" width="120" height="60" as="geometry" />
        </mxCell>
        <mxCell id="_JSY_UYZVq-XVwTAvxOI-40" value="" style="shape=mxgraph.bpmn.shape;html=1;verticalLabelPosition=bottom;labelBackgroundColor=#ffffff;verticalAlign=top;perimeter=ellipsePerimeter;outline=end;symbol=terminate;rounded=0;shadow=0;comic=0;strokeWidth=1;fontFamily=Verdana;fontSize=12;align=center;" vertex="1" parent="_JSY_UYZVq-XVwTAvxOI-15">
          <mxGeometry x="105" y="870" width="40" height="40" as="geometry" />
        </mxCell>
        <mxCell id="_JSY_UYZVq-XVwTAvxOI-61" style="edgeStyle=orthogonalEdgeStyle;rounded=0;orthogonalLoop=1;jettySize=auto;html=1;exitX=0.5;exitY=1;exitDx=0;exitDy=0;entryX=0.5;entryY=0;entryDx=0;entryDy=0;" edge="1" parent="_JSY_UYZVq-XVwTAvxOI-15" source="_JSY_UYZVq-XVwTAvxOI-58" target="_JSY_UYZVq-XVwTAvxOI-40">
          <mxGeometry relative="1" as="geometry" />
        </mxCell>
        <mxCell id="_JSY_UYZVq-XVwTAvxOI-43" style="edgeStyle=orthogonalEdgeStyle;rounded=0;orthogonalLoop=1;jettySize=auto;html=1;exitX=0;exitY=0.5;exitDx=0;exitDy=0;" edge="1" parent="_JSY_UYZVq-XVwTAvxOI-2" source="_JSY_UYZVq-XVwTAvxOI-42" target="_JSY_UYZVq-XVwTAvxOI-7">
          <mxGeometry relative="1" as="geometry" />
        </mxCell>
        <mxCell id="_JSY_UYZVq-XVwTAvxOI-53" style="edgeStyle=orthogonalEdgeStyle;rounded=0;orthogonalLoop=1;jettySize=auto;html=1;exitX=1;exitY=0.5;exitDx=0;exitDy=0;entryX=0;entryY=0.5;entryDx=0;entryDy=0;" edge="1" parent="_JSY_UYZVq-XVwTAvxOI-2" source="_JSY_UYZVq-XVwTAvxOI-46" target="_JSY_UYZVq-XVwTAvxOI-52">
          <mxGeometry relative="1" as="geometry">
            <Array as="points">
              <mxPoint x="490" y="710" />
              <mxPoint x="490" y="580" />
            </Array>
          </mxGeometry>
        </mxCell>
        <mxCell id="_JSY_UYZVq-XVwTAvxOI-57" value="No" style="edgeStyle=orthogonalEdgeStyle;rounded=0;orthogonalLoop=1;jettySize=auto;html=1;exitX=1;exitY=0.5;exitDx=0;exitDy=0;entryX=1;entryY=0.25;entryDx=0;entryDy=0;" edge="1" parent="_JSY_UYZVq-XVwTAvxOI-2" source="_JSY_UYZVq-XVwTAvxOI-54" target="_JSY_UYZVq-XVwTAvxOI-42">
          <mxGeometry x="-0.9291" relative="1" as="geometry">
            <Array as="points">
              <mxPoint x="720" y="710" />
              <mxPoint x="720" y="345" />
            </Array>
            <mxPoint as="offset" />
          </mxGeometry>
        </mxCell>
        <mxCell id="_JSY_UYZVq-XVwTAvxOI-35" value="Data PMS" style="shape=cylinder3;whiteSpace=wrap;html=1;boundedLbl=1;backgroundOutline=1;size=15;" vertex="1" parent="1">
          <mxGeometry x="130" y="220" width="60" height="80" as="geometry" />
        </mxCell>
        <mxCell id="_JSY_UYZVq-XVwTAvxOI-36" style="edgeStyle=orthogonalEdgeStyle;rounded=0;orthogonalLoop=1;jettySize=auto;html=1;exitX=0.5;exitY=1;exitDx=0;exitDy=0;" edge="1" parent="1" source="_JSY_UYZVq-XVwTAvxOI-5" target="_JSY_UYZVq-XVwTAvxOI-35">
          <mxGeometry relative="1" as="geometry" />
        </mxCell>
        <mxCell id="_JSY_UYZVq-XVwTAvxOI-37" style="edgeStyle=orthogonalEdgeStyle;rounded=0;orthogonalLoop=1;jettySize=auto;html=1;entryX=0.5;entryY=1;entryDx=0;entryDy=0;entryPerimeter=0;" edge="1" parent="1" source="_JSY_UYZVq-XVwTAvxOI-7" target="_JSY_UYZVq-XVwTAvxOI-35">
          <mxGeometry relative="1" as="geometry">
            <mxPoint x="160" y="335" as="sourcePoint" />
          </mxGeometry>
        </mxCell>
      </root>
    </mxGraphModel>
  </diagram>
</mxfile>
